<svg xmlns="http://www.w3.org/2000/svg" viewBox="0 0 500 500" fill="none">
  <defs>
    <filter id="cpax-glow" x="-10%" y="-10%" width="120%" height="120%">
      <feDropShadow dx="0" dy="8" stdDeviation="6" flood-color="#4f46e5" flood-opacity="0.25" />
      <feDropShadow dx="0" dy="2" stdDeviation="2" flood-color="#0f172a" flood-opacity="0.4" />
    </filter>
    <filter id="x-glow" x="-15%" y="-15%" width="130%" height="130%">
      <feDropShadow dx="0" dy="6" stdDeviation="6" flood-color="#ffffff" flood-opacity="0.3" />
    </filter>

    <linearGradient id="gradient-c-outer" x1="50" y1="50" x2="450" y2="450" gradientUnits="userSpaceOnUse">
      <stop offset="0%" stop-color="#6366f1" />
      <stop offset="45%" stop-color="#4f46e5" />
      <stop offset="100%" stop-color="#312e81" />
    </linearGradient>
    
    <linearGradient id="gradient-c-inner" x1="100" y1="100" x2="400" y2="400" gradientUnits="userSpaceOnUse">
      <stop offset="0%" stop-color="#818cf8" />
      <stop offset="60%" stop-color="#4338ca" />
      <stop offset="100%" stop-color="#1e1b4b" />
    </linearGradient>

    <linearGradient id="gradient-x-left" x1="200" y1="100" x2="450" y2="400" gradientUnits="userSpaceOnUse">
      <stop offset="0%" stop-color="#ffffff" />
      <stop offset="60%" stop-color="#e2e8f0" />
      <stop offset="100%" stop-color="#cbd5e1" />
    </linearGradient>
    <linearGradient id="gradient-x-right" x1="450" y1="100" x2="200" y2="400" gradientUnits="userSpaceOnUse">
      <stop offset="0%" stop-color="#ffffff" />
      <stop offset="50%" stop-color="#f1f5f9" />
      <stop offset="100%" stop-color="#94a3b8" />
    </linearGradient>
  </defs>

  <rect width="100%" height="100%" fill="#000000" />

  <path
    d="M 290,105 C 190,105 105,190 105,290 C 105,390 190,475 290,475 C 350,475 400,445 425,400 L 360,360 C 345,385 320,400 290,400 C 230,400 180,350 180,290 C 180,230 230,180 290,180 C 320,180 345,195 360,220 L 425,180 C 400,135 350,105 290,105 Z"
    fill="url(#gradient-c-outer)"
    filter="url(#cpax-glow)"
  />
  <path
    d="M 290,120 C 200,120 120,200 120,290 C 120,380 200,460 290,460 C 340,460 385,435 410,395 L 375,365 C 355,385 325,400 290,400 C 230,400 180,350 180,290 C 180,230 230,180 290,180 C 325,180 355,195 375,215 L 410,185 C 385,145 340,120 290,120 Z"
    fill="url(#gradient-c-inner)"
    opacity="0.85"
  />

  <path
    d="M 215,140 L 295,140 C 310,140 370,250 410,335 L 410,430 L 360,430 C 340,430 280,310 215,140 Z"
    fill="url(#gradient-x-left)"
    filter="url(#x-glow)"
  />
  
  <path
    d="M 215,410 L 275,410 C 295,410 370,185 410,140 L 410,140 L 435,140 C 435,140 330,310 270,410 H 215 Z"
    fill="url(#gradient-x-right)"
    opacity="0.95"
  />

  <path
    d="M 290,240 L 335,320 L 305,320 L 270,260 Z"
    fill="#ffffff"
    opacity="0.8"
  />

  <text x="50%" y="465" font-family="-apple-system, BlinkMacSystemFont, 'Segoe UI', Roboto, sans-serif" font-weight="900" font-size="52" fill="#ffffff" text-anchor="middle" letter-spacing="12">CPAX</text>
</svg>
